<svg width="488" height="488" viewBox="0 0 488 488" fill="none" xmlns="http://www.w3.org/2000/svg">
<path d="M351.1 306.6L254 238.7V122C254 116.5 249.5 112 244 112C238.5 112 234 116.5 234 122V244C234 247.3 235.6 250.3 238.3 252.2L339.7 323.1C341.4 324.3 343.4 324.9 345.4 324.9C348.5 324.9 351.6 323.4 353.6 320.5C356.7 316 355.6 309.8 351.1 306.6Z" fill="white"/>
<path d="M416.4 71.6C370.2 25.4 309 0 244 0C179 0 117.8 25.4 71.6 71.6C25.4 117.8 0 179 0 244C0 309 25.4 370.2 71.6 416.4C117.8 462.6 179 488 244 488C309 488 370.2 462.6 416.4 416.4C462.6 370.2 488 309 488 244C488 179 462.6 117.8 416.4 71.6ZM254 467.8V427C254 421.5 249.5 417 244 417C238.5 417 234 421.5 234 427V467.8C118.4 462.7 25.3 369.6 20.2 254H61C66.5 254 71 249.5 71 244C71 238.5 66.5 234 61 234H20.2C25.3 118.4 118.4 25.3 234 20.2V61C234 66.5 238.5 71 244 71C249.5 71 254 66.5 254 61V20.2C369.6 25.3 462.7 118.4 467.8 234H427C421.5 234 417 238.5 417 244C417 249.5 421.5 254 427 254H467.8C462.7 369.6 369.6 462.7 254 467.8Z" fill="white"/>
</svg>
