<svg width="488" height="347" viewBox="0 0 488 347" fill="none" xmlns="http://www.w3.org/2000/svg">
<path d="M352.8 114.05H23.3C10.4 114.05 0 124.45 0 137.35V323.65C0 336.55 10.4 346.95 23.3 346.95H352.8C365.7 346.95 376.1 336.55 376.1 323.65V137.35C376.1 124.45 365.6 114.05 352.8 114.05ZM348.3 280.55C346.4 280.25 344.5 280.05 342.5 280.05C324.3 280.05 309.5 294.85 309.5 313.05C309.5 315.15 309.7 317.15 310.1 319.15H68.7C68.9 317.85 69 316.45 69 315.05C69 296.85 54.2 282.05 36 282.05C33.2 282.05 30.4 282.45 27.8 283.05V181.85C30.4 182.55 33.1 182.85 36 182.85C54.2 182.85 69 168.05 69 149.85C69 147.05 68.6 144.35 68 141.85H310.1C309.7 143.85 309.5 145.85 309.5 147.95C309.5 166.15 324.3 180.95 342.5 180.95C344.5 180.95 346.4 180.75 348.3 180.45V280.55ZM431.7 89.85V257.95C431.7 261.05 431.3 264.05 430.4 266.95C426.1 281.75 403.9 278.05 403.9 262.65V252.35V100.25C403.9 92.05 397.2 85.35 389 85.35H93.2H83.4H83.2C67.8 85.35 64.1 63.15 78.9 58.85C81.8 58.05 84.8 57.55 87.9 57.55H399.2C417.2 57.45 431.7 71.95 431.7 89.85ZM487.7 33.15V201.25C487.7 204.35 487.3 207.35 486.4 210.25C482.1 225.05 459.9 221.35 459.9 205.95V195.65V43.45C459.9 35.25 453.2 28.55 445 28.55H149.1H139.3H139.1C123.7 28.55 120 6.35 134.8 2.05C137.7 1.25 140.7 0.75 143.8 0.75H455.1C473.2 0.75 487.7 15.25 487.7 33.15ZM309.8 230.25C309.8 241.15 301 249.95 290.1 249.95C279.2 249.95 270.4 241.15 270.4 230.25C270.4 219.35 279.2 210.55 290.1 210.55C301 210.55 309.8 219.35 309.8 230.25ZM103.3 230.25C103.3 241.15 94.5 249.95 83.6 249.95C72.7 249.95 63.9 241.15 63.9 230.25C63.9 219.35 72.7 210.55 83.6 210.55C94.5 210.55 103.3 219.35 103.3 230.25ZM186.9 159.25C147.7 159.25 115.9 191.05 115.9 230.25C115.9 269.45 147.7 301.25 186.9 301.25C226.1 301.25 257.9 269.45 257.9 230.25C257.9 191.05 226.1 159.25 186.9 159.25ZM186.9 271.35C164.2 271.35 145.8 252.95 145.8 230.25C145.8 207.55 164.2 189.15 186.9 189.15C209.6 189.15 228 207.55 228 230.25C228 252.95 209.5 271.35 186.9 271.35Z" fill="white"/>
</svg>
